{
  "source": "C:\\Users\\Peter\\Desktop\\stuff\\MIUN\\quantitative_research\\video_compression\\videos\\BVI-HD\\BVI-HD_CDVL_videos\\ORIG\\BubblesPitcher_1920x1080_60fps.mp4",
  "output": "C:\\Users\\Peter\\Desktop\\stuff\\MIUN\\quantitative_research\\video_compression\\compressed_videos\\BVI-HD\\av1\\1\\BubblesPitcher_1920x1080_60fps_av1.mkv",
  "codec": "av1",
  "ok": "Input #0, mov,mp4,m4a,3gp,3g2,mj2, from 'C:\\Users\\Peter\\Desktop\\stuff\\MIUN\\quantitative_research\\video_compression\\videos\\BVI-HD\\BVI-HD_CDVL_videos\\ORIG\\BubblesPitcher_1920x1080_60fps.mp4':\n  Metadata:\n    major_brand     : isom\n    minor_version   : 512\n    compatible_brands: isomiso2avc1mp41\n    encoder         : Lavf54.28.101\n  Duration: 00:00:05.00, start: 0.000000, bitrate: 188849 kb/s\n  Stream #0:0[0x1](und): Video: h264 (High 4:4:4 Predictive) (avc1 / 0x31637661), yuv420p(progressive), 1920x1080, 188844 kb/s, 60 fps, 60 tbr, 60 tbn (default)\n    Metadata:\n      handler_name    : VideoHandler\n      vendor_id       : [0][0][0][0]\n[out#0/matroska @ 000001e1ad6acd80] Codec AVOption b:a (set bitrate (in bits/s)) has not been used for any stream. The most likely reason is either wrong type (e.g. a video option with no video streams) or that it is a private option of some decoder which was not actually used for any stream.\nStream mapping:\n  Stream #0:0 -> #0:0 (h264 (native) -> av1 (libsvtav1))\nPress [q] to stop, [?] for help\nSvt[info]: -------------------------------------------\nSvt[info]: SVT [version]:\tSVT-AV1 Encoder Lib v3.1.0-19-g6ecfe8ec\nSvt[info]: SVT [build]  :\tGCC 15.2.0\t 64 bit\nSvt[info]: LIB Build date: Aug 17 2025 11:37:13\nSvt[info]: -------------------------------------------\nSvt[info]: Level of Parallelism: 5\nSvt[info]: Number of PPCS 93\nSvt[info]: [asm level on system : up to avx2]\nSvt[info]: [asm level selected : up to avx2]\nSvt[info]: -------------------------------------------\nSvt[info]: SVT [config]: main profile\ttier (auto)\tlevel (auto)\nSvt[info]: SVT [config]: width / height / fps numerator / fps denominator \t\t: 1920 / 1080 / 60 / 1\nSvt[info]: SVT [config]: bit-depth / color format \t\t\t\t\t: 8 / YUV420\nSvt[info]: SVT [config]: preset / tune / pred struct \t\t\t\t\t: 4 / PSNR / random access\nSvt[info]: SVT [config]: gop size / mini-gop size / key-frame type \t\t\t: 321 / 16 / key frame\nSvt[info]: SVT [config]: BRC mode / target bitrate (kbps)\t\t\t\t: VBR / 1000 \nSvt[info]: SVT [config]: AQ mode / Variance Boost \t\t\t\t\t: 2 / 0\nSvt[info]: SVT [config]: sharpness / luminance-based QP bias \t\t\t\t: 0 / 0\nSvt[info]: SVT [config]: QP scale compress strength \t\t\t\t\t: 0\nSvt[info]: -------------------------------------------\nOutput #0, matroska, to 'C:\\Users\\Peter\\Desktop\\stuff\\MIUN\\quantitative_research\\video_compression\\compressed_videos\\BVI-HD\\av1\\1\\BubblesPitcher_1920x1080_60fps_av1.mkv':\n  Metadata:\n    major_brand     : isom\n    minor_version   : 512\n    compatible_brands: isomiso2avc1mp41\n    encoder         : Lavf62.3.100\n  Stream #0:0(und): Video: av1 (AV01 / 0x31305641), yuv420p(tv, progressive), 1920x1080, q=2-31, 1000 kb/s, 60 fps, 1k tbn (default)\n    Metadata:\n      encoder         : Lavc62.11.100 libsvtav1\n      handler_name    : VideoHandler\n      vendor_id       : [0][0][0][0]\n    Side data:\n      cpb: bitrate max/min/avg: 0/0/1000000 buffer size: 1000000 vbv_delay: N/A\nframe=    0 fps=0.0 q=0.0 size=       0KiB time=N/A bitrate=N/A speed=N/A elapsed=0:00:01.04    \nframe=    0 fps=0.0 q=0.0 size=       0KiB time=N/A bitrate=N/A speed=N/A elapsed=0:00:01.64    \nframe=    0 fps=0.0 q=0.0 size=       0KiB time=N/A bitrate=N/A speed=N/A elapsed=0:00:02.19    \nframe=    0 fps=0.0 q=0.0 size=       0KiB time=N/A bitrate=N/A speed=N/A elapsed=0:00:02.73    \nframe=    0 fps=0.0 q=0.0 size=       0KiB time=N/A bitrate=N/A speed=N/A elapsed=0:00:03.26    \nframe=    0 fps=0.0 q=0.0 size=       0KiB time=N/A bitrate=N/A speed=N/A elapsed=0:00:03.78    \nframe=    0 fps=0.0 q=0.0 size=       0KiB time=N/A bitrate=N/A speed=N/A elapsed=0:00:04.32    \nframe=    0 fps=0.0 q=0.0 size=       0KiB time=N/A bitrate=N/A speed=N/A elapsed=0:00:04.85    \nframe=    0 fps=0.0 q=0.0 size=       0KiB time=N/A bitrate=N/A speed=N/A elapsed=0:00:05.37    \nframe=    0 fps=0.0 q=0.0 size=       0KiB time=N/A bitrate=N/A speed=N/A elapsed=0:00:05.90    \nframe=    0 fps=0.0 q=0.0 size=       0KiB time=N/A bitrate=N/A speed=N/A elapsed=0:00:06.46    \nframe=    3 fps=0.4 q=42.0 size=       1KiB time=00:00:00.03 bitrate= 170.9kbits/s speed=0.00477x elapsed=0:00:06.98    \nframe=   13 fps=1.7 q=40.0 size=       1KiB time=00:00:00.20 bitrate=  28.5kbits/s speed=0.0265x elapsed=0:00:07.55    \nframe=   22 fps=2.7 q=38.0 size=       1KiB time=00:00:00.35 bitrate=  16.3kbits/s speed=0.0428x elapsed=0:00:08.18    \nframe=   24 fps=2.7 q=40.0 size=       1KiB time=00:00:00.38 bitrate=  14.9kbits/s speed=0.0438x elapsed=0:00:08.75    \nframe=   30 fps=3.2 q=38.0 size=       1KiB time=00:00:00.46 bitrate=  12.2kbits/s speed=0.0501x elapsed=0:00:09.31    \nframe=   37 fps=3.7 q=38.0 size=       1KiB time=00:00:00.60 bitrate=   9.5kbits/s speed=0.0606x elapsed=0:00:09.89    \nframe=   42 fps=4.0 q=39.0 size=       1KiB time=00:00:00.65 bitrate=   8.8kbits/s speed=0.0618x elapsed=0:00:10.52    \nframe=   47 fps=4.2 q=41.0 size=       1KiB time=00:00:00.76 bitrate=   7.4kbits/s speed=0.0687x elapsed=0:00:11.16    \nframe=   54 fps=4.6 q=42.0 size=       1KiB time=00:00:00.86 bitrate=   6.6kbits/s speed=0.0736x elapsed=0:00:11.77    \nframe=   58 fps=4.7 q=43.0 size=       1KiB time=00:00:00.95 bitrate=   6.0kbits/s speed=0.0762x elapsed=0:00:12.46    \nframe=   64 fps=4.9 q=42.0 size=       1KiB time=00:00:01.05 bitrate=   5.4kbits/s speed=0.0806x elapsed=0:00:13.02    \nframe=   70 fps=5.2 q=41.0 size=       1KiB time=00:00:01.15 bitrate=   5.0kbits/s speed=0.0848x elapsed=0:00:13.56    \nframe=   74 fps=5.2 q=42.0 size=       1KiB time=00:00:01.21 bitrate=   4.7kbits/s speed=0.0853x elapsed=0:00:14.26    \nframe=   79 fps=5.3 q=42.0 size=       1KiB time=00:00:01.30 bitrate=   4.4kbits/s speed=0.0869x elapsed=0:00:14.96    \nframe=   84 fps=5.4 q=43.0 size=       1KiB time=00:00:01.38 bitrate=   4.1kbits/s speed=0.0892x elapsed=0:00:15.51    \nframe=   89 fps=5.5 q=33.0 size=       1KiB time=00:00:01.43 bitrate=   4.0kbits/s speed=0.0889x elapsed=0:00:16.11    \nframe=   92 fps=5.5 q=44.0 size=       1KiB time=00:00:01.51 bitrate=   3.8kbits/s speed=0.0901x elapsed=0:00:16.82    \nframe=  100 fps=5.7 q=46.0 size=       1KiB time=00:00:01.63 bitrate=   3.5kbits/s speed=0.0934x elapsed=0:00:17.49    \nframe=  103 fps=5.7 q=47.0 size=       1KiB time=00:00:01.68 bitrate=   3.4kbits/s speed=0.093x elapsed=0:00:18.09    \nframe=  108 fps=5.7 q=47.0 size=       1KiB time=00:00:01.76 bitrate=   3.2kbits/s speed=0.0937x elapsed=0:00:18.85    \nframe=  116 fps=5.9 q=48.0 size=       1KiB time=00:00:01.91 bitrate=   3.0kbits/s speed=0.0978x elapsed=0:00:19.59    \nframe=  119 fps=5.9 q=50.0 size=       1KiB time=00:00:01.95 bitrate=   2.9kbits/s speed=0.096x elapsed=0:00:20.31    \nframe=  123 fps=5.8 q=50.0 size=       1KiB time=00:00:02.01 bitrate=   2.8kbits/s speed=0.0959x elapsed=0:00:21.03    \nframe=  128 fps=5.9 q=49.0 size=       1KiB time=00:00:02.11 bitrate=   2.7kbits/s speed=0.0973x elapsed=0:00:21.75    \nframe=  132 fps=5.9 q=49.0 size=       1KiB time=00:00:02.18 bitrate=   2.6kbits/s speed=0.0979x elapsed=0:00:22.30    \nframe=  134 fps=5.8 q=51.0 size=       1KiB time=00:00:02.20 bitrate=   2.6kbits/s speed=0.0958x elapsed=0:00:22.96    \nframe=  138 fps=5.8 q=54.0 size=       1KiB time=00:00:02.26 bitrate=   2.5kbits/s speed=0.0956x elapsed=0:00:23.70    \nframe=  143 fps=5.9 q=54.0 size=       1KiB time=00:00:02.33 bitrate=   2.4kbits/s speed=0.0955x elapsed=0:00:24.44    \nframe=  148 fps=5.9 q=57.0 size=       1KiB time=00:00:02.41 bitrate=   2.4kbits/s speed=0.0963x elapsed=0:00:25.08    \nframe=  150 fps=5.8 q=57.0 size=       1KiB time=00:00:02.46 bitrate=   2.3kbits/s speed=0.0961x elapsed=0:00:25.66    \nframe=  153 fps=5.8 q=45.0 size=       1KiB time=00:00:02.53 bitrate=   2.2kbits/s speed=0.0961x elapsed=0:00:26.36    \nframe=  159 fps=5.9 q=56.0 size=       1KiB time=00:00:02.61 bitrate=   2.2kbits/s speed=0.0969x elapsed=0:00:26.99    \nframe=  162 fps=5.9 q=58.0 size=       1KiB time=00:00:02.68 bitrate=   2.1kbits/s speed=0.097x elapsed=0:00:27.65    \nframe=  165 fps=5.8 q=56.0 size=       1KiB time=00:00:02.73 bitrate=   2.1kbits/s speed=0.0969x elapsed=0:00:28.21    \nframe=  169 fps=5.8 q=52.0 size=       1KiB time=00:00:02.76 bitrate=   2.1kbits/s speed=0.0957x elapsed=0:00:28.91    \nframe=  172 fps=5.8 q=60.0 size=       1KiB time=00:00:02.85 bitrate=   2.0kbits/s speed=0.0962x elapsed=0:00:29.62    \nframe=  175 fps=5.8 q=58.0 size=       1KiB time=00:00:02.90 bitrate=   2.0kbits/s speed=0.0955x elapsed=0:00:30.37    \nframe=  178 fps=5.7 q=60.0 size=       1KiB time=00:00:02.95 bitrate=   1.9kbits/s speed=0.095x elapsed=0:00:31.04    \nframe=  181 fps=5.7 q=58.0 size=       1KiB time=00:00:02.98 bitrate=   1.9kbits/s speed=0.0944x elapsed=0:00:31.59    \nframe=  183 fps=5.7 q=59.0 size=       1KiB time=00:00:03.01 bitrate=   1.9kbits/s speed=0.0937x elapsed=0:00:32.20    \nframe=  186 fps=5.7 q=60.0 size=       1KiB time=00:00:03.08 bitrate=   1.8kbits/s speed=0.0937x elapsed=0:00:32.91    \nframe=  188 fps=5.6 q=60.0 size=       1KiB time=00:00:03.11 bitrate=   1.8kbits/s speed=0.0928x elapsed=0:00:33.58    \nframe=  191 fps=5.6 q=58.0 size=       1KiB time=00:00:03.16 bitrate=   1.8kbits/s speed=0.0926x elapsed=0:00:34.21    \nframe=  197 fps=5.7 q=58.0 size=       1KiB time=00:00:03.26 bitrate=   1.7kbits/s speed=0.0939x elapsed=0:00:34.77    \nframe=  198 fps=5.6 q=62.0 size=       1KiB time=00:00:03.28 bitrate=   1.7kbits/s speed=0.0928x elapsed=0:00:35.38    \nframe=  205 fps=5.7 q=59.0 size=       1KiB time=00:00:03.40 bitrate=   1.7kbits/s speed=0.0943x elapsed=0:00:36.06    \nframe=  205 fps=5.6 q=59.0 size=       1KiB time=00:00:03.40 bitrate=   1.7kbits/s speed=0.0925x elapsed=0:00:36.77    \nframe=  213 fps=5.7 q=60.0 size=       1KiB time=00:00:03.46 bitrate=   1.6kbits/s speed=0.0926x elapsed=0:00:37.45    \nframe=  217 fps=5.7 q=58.0 size=       1KiB time=00:00:03.60 bitrate=   1.6kbits/s speed=0.0944x elapsed=0:00:38.15    \nframe=  217 fps=5.6 q=58.0 size=       1KiB time=00:00:03.60 bitrate=   1.6kbits/s speed=0.093x elapsed=0:00:38.69    \nframe=  221 fps=5.6 q=60.0 size=       1KiB time=00:00:03.66 bitrate=   1.6kbits/s speed=0.0935x elapsed=0:00:39.23    \nframe=  225 fps=5.7 q=51.0 size=       1KiB time=00:00:03.73 bitrate=   1.5kbits/s speed=0.0939x elapsed=0:00:39.76    \nframe=  233 fps=5.8 q=58.0 size=       1KiB time=00:00:03.86 bitrate=   1.5kbits/s speed=0.0959x elapsed=0:00:40.30    \nframe=  233 fps=5.7 q=58.0 size=       1KiB time=00:00:03.86 bitrate=   1.5kbits/s speed=0.0948x elapsed=0:00:40.80    \nframe=  237 fps=5.7 q=59.0 size=       1KiB time=00:00:03.93 bitrate=   1.4kbits/s speed=0.0951x elapsed=0:00:41.35    \nframe=  245 fps=5.8 q=61.0 size=       1KiB time=00:00:04.06 bitrate=   1.4kbits/s speed=0.097x elapsed=0:00:41.91    \nframe=  249 fps=5.9 q=61.0 size=       1KiB time=00:00:04.13 bitrate=   1.4kbits/s speed=0.0974x elapsed=0:00:42.43    \nframe=  253 fps=5.9 q=61.0 size=       1KiB time=00:00:04.20 bitrate=   1.4kbits/s speed=0.0978x elapsed=0:00:42.96    \nframe=  261 fps=6.0 q=61.0 size=       1KiB time=00:00:04.33 bitrate=   1.3kbits/s speed=0.0996x elapsed=0:00:43.49    \nframe=  265 fps=6.0 q=61.0 size=       1KiB time=00:00:04.40 bitrate=   1.3kbits/s speed= 0.1x elapsed=0:00:44.01    \nframe=  273 fps=6.1 q=54.0 size=       1KiB time=00:00:04.53 bitrate=   1.3kbits/s speed=0.102x elapsed=0:00:44.54    \nframe=  281 fps=6.2 q=61.0 size=       1KiB time=00:00:04.66 bitrate=   1.2kbits/s speed=0.104x elapsed=0:00:45.07    \nframe=  285 fps=6.3 q=61.0 size=       1KiB time=00:00:04.73 bitrate=   1.2kbits/s speed=0.104x elapsed=0:00:45.59    \n[out#0/matroska @ 000001e1ad6acd80] video:678KiB audio:0KiB subtitle:0KiB other streams:0KiB global headers:0KiB muxing overhead: 0.305157%\nframe=  300 fps=6.5 q=61.0 Lsize=     680KiB time=00:00:04.98 bitrate=1117.6kbits/s speed=0.109x elapsed=0:00:45.82    \n",
  "seconds": 46.24416661262512,
  "probe_out": {}
}